<svg xmlns="http://www.w3.org/2000/svg" width="500" height="500" viewBox="0 0 500 500"><g transform="translate(107,144)translate(188,34.5)rotate(0)translate(-188,-34.5)" opacity="1"><path transform="translate(6,0)rotate(0)" d="M22.08 45.48L22.08 41.16L28.80 41.16L28.80 48.02L23.23 51.24L9.65 51.24L4.08 48.02L4.08 20.38L9.65 17.16L23.23 17.16L28.80 20.38L28.80 27.24L22.08 27.24L22.08 22.92L10.80 22.92L10.80 45.48L22.08 45.48ZM55.92 45L55.92 17.40L62.64 17.40L62.64 48.02L57.07 51.24L42.05 51.24L36.48 48.02L36.48 17.40L43.20 17.40L43.20 45L55.92 45ZM88.99 38.33L96.29 51L88.90 51L81.70 38.33L77.52 38.33L77.52 51L70.80 51L70.80 17.40L88.99 17.40L94.56 20.62L94.56 35.11L88.99 38.33ZM87.84 23.16L77.52 23.16L77.52 32.57L87.84 32.57L87.84 23.16ZM120.91 38.33L128.21 51L120.82 51L113.62 38.33L109.44 38.33L109.44 51L102.72 51L102.72 17.40L120.91 17.40L126.48 20.62L126.48 35.11L120.91 38.33ZM119.76 23.16L109.44 23.16L109.44 32.57L119.76 32.57L119.76 23.16ZM151.87 36.60L141.36 36.60L141.36 45.24L154.75 45.24L154.75 51L134.64 51L134.64 17.40L154.75 17.40L154.75 23.16L141.36 23.16L141.36 30.84L151.87 30.84L151.87 36.60ZM167.81 29.26L167.71 29.26L167.71 51L160.99 51L160.99 17.40L167.28 17.40L181.78 39.14L181.87 39.14L181.87 17.40L188.59 17.40L188.59 51L182.30 51L167.81 29.26ZM218.74 23.16L209.66 23.16L209.66 51L202.94 51L202.94 23.16L193.87 23.16L193.87 17.40L218.74 17.40L218.74 23.16ZM257.71 17.40L264.53 17.40L252.53 51L245.14 51L233.14 17.40L239.95 17.40L248.83 42.79L248.93 42.79L257.71 17.40ZM276.05 51L269.33 51L269.33 17.40L276.05 17.40L276.05 51ZM306.19 23.16L297.12 23.16L297.12 51L290.40 51L290.40 23.16L281.33 23.16L281.33 17.40L306.19 17.40L306.19 23.16ZM320.11 17.40L327.02 17.40L339.02 51L332.40 51L329.86 43.75L317.28 43.75L314.74 51L308.11 51L320.11 17.40ZM323.62 25.85L323.52 25.85L319.30 37.99L327.79 37.99L323.62 25.85ZM361.06 36.60L350.54 36.60L350.54 45.24L363.94 45.24L363.94 51L343.82 51L343.82 17.40L363.94 17.40L363.94 23.16L350.54 23.16L350.54 30.84L361.06 30.84L361.06 36.60Z" fill="#0761a5"/></g><g transform="translate(9,133)translate(49,48.5)rotate(0)translate(-49,-48.5) scale(0.5157894736842106,0.5157894736842106)" opacity="1"><defs class="defs"/><path fill="#9E9E9F" d="M161.332,25.346C175.425,41.092,184,61.882,184,84.678c0,49.153-39.846,89-89,89c-49.153,0-89-39.848-89-89&#10;&#9;c0-22.796,8.574-43.586,22.668-59.332C10.984,42.599,0,66.687,0,93.345c0,52.466,42.533,95.001,95,95.001&#10;&#9;c52.466,0,95-42.533,95-95.001C190,66.687,179.016,42.599,161.332,25.346z" class="color c1"/><path fill="#C1C2C2" d="M15,92c0-44.183,35.816-80,80-80c44.184,0,80,35.817,80,80c0,13.32-3.273,25.87-9.033,36.917&#10;&#9;C174.208,115.924,179,100.525,179,84c0-46.392-37.607-84-84-84C48.607,0,11,37.608,11,84c0,16.525,4.791,31.924,13.033,44.917&#10;&#9;C18.273,117.87,15,105.32,15,92z" class="color c2"/></g><g transform="translate(31,144)translate(27.5,36.5)rotate(0)translate(-27.5,-36.5) scale(0.5201978643513133,0.5201978643513133)" opacity="1"><defs class="defs"/><path fill="#0761A5" d="M48.834,87.057c-2.054,3.317-2.37,4.426-2.37,4.426l3.479,4.74l-4.427,34.61l-14.382-45.99&#10;&#9;c-1.422,0.634-19.438,8.851-24.495,15.33C1.422,106.968,0,123.723,0,123.723s17.228,14.223,48.044,16.118c0,0,0,0,0.158,0&#10;&#9;C50.098,140,52.312,140,54.365,140c2.055,0,4.268,0,6.164-0.158c0.158,0,0.316,0,0.316,0c30.344-1.896,44.883-16.279,44.883-16.279&#10;&#9;s-2.371-18.33-6.32-23.547c-4.109-5.373-23.707-14.381-23.707-14.381l0,0l-14.066,45.199l-4.266-34.611l3.478-4.582&#10;&#9;c0,0-0.316-1.106-2.371-4.584H48.834L48.834,87.057z M78.388,38.064c0-5.058,3.317-15.33,3.317-15.33s0.476-1.422,0.949-2.528&#10;&#9;c-0.633-0.158-2.846-0.316-3.795-2.055c0.791,0.157,4.268-1.896,3.32-2.212c-0.949-0.316-5.689-3.794-8.377-4.109&#10;&#9;c0.475-1.738,4.424-2.055,4.897-3.793c-5.688,0.79-28.92-19.913-42.669,2.213c-4.426,0-8.218,1.264-10.115,3.95&#10;&#9;c-0.789,1.106-1.264,1.265-2.212,1.581c-0.948,0.316,2.054,1.422,2.688,1.264c-0.948,1.738-2.528,3.003-3.161,3.161&#10;&#9;c0.633,1.106,0.948,2.528,0.948,2.528s3.636,10.272,3.636,15.33c0,0-2.213-0.633-3.793,1.106c-1.58,1.738,1.896,11.221,5.057,15.329&#10;&#9;c0.791,2.213,1.106,3.004,1.106,3.004s3.318,15.96,4.108,17.067c0.79,1.105,8.691,8.375,10.904,8.691&#10;&#9;c1.265,0.158,4.583,0.475,7.901,0.475s6.637-0.315,7.902-0.475c2.213-0.316,10.273-7.586,10.904-8.691&#10;&#9;c0.789-1.106,4.109-17.067,4.109-17.067s0.315-0.949,1.104-3.004c3.162-3.951,6.639-13.591,5.06-15.329&#10;&#9;C80.599,37.432,78.388,38.064,78.388,38.064z M58.791,70.938c-2.528,1.104-4.268-3.636-4.268-3.636s-0.316-0.158-1.422-0.158&#10;&#9;s-1.422,0.158-1.422,0.158s-1.737,4.74-4.269,3.636c-2.528-1.107,0.476-6.322,1.581-6.796c0.158-0.158,2.688-0.316,4.108-0.316&#10;&#9;c1.264,0,3.793,0.158,4.109,0.316C58.318,64.615,61.162,69.83,58.791,70.938z M73.015,57.346c-1.107,1.58-10.273,4.425-10.273,4.425&#10;&#9;s-0.791-3.478-2.688-4.583c-1.265-0.633-4.74-0.949-6.954-0.949c-2.212,0.158-5.531,0.316-6.953,0.949&#10;&#9;c-2.055,0.947-2.688,4.583-2.688,4.583s-9.166-2.845-10.271-4.425c-1.106-1.581-2.688-15.33-2.688-15.33s3.634-2.371,3.634-5.059&#10;&#9;c0.159-2.686-0.788-8.217-0.788-10.43c0-2.213,6.005-9.641,8.69-9.641c3.161,1.265,6.954,1.896,11.063,2.055&#10;&#9;c4.109,0,7.902-0.79,11.063-2.055c2.688-0.158,8.691,7.271,8.691,9.641c0,2.213-0.947,7.902-0.789,10.43&#10;&#9;c0.158,2.688,3.635,5.059,3.635,5.059S74.121,55.606,73.015,57.346z" class="color c1"/></g></svg>